<?xml version="1.0" encoding="utf-8"?>
<!-- Generator: Adobe Illustrator 17.1.0, SVG Export Plug-In . SVG Version: 6.00 Build 0)  -->
<!DOCTYPE svg PUBLIC "-//W3C//DTD SVG 1.1//EN" "http://www.w3.org/Graphics/SVG/1.1/DTD/svg11.dtd">
<svg version="1.1" id="Layer_1" xmlns="http://www.w3.org/2000/svg" xmlns:xlink="http://www.w3.org/1999/xlink" x="0px" y="0px"
	 viewBox="0 0 50 50" enable-background="new 0 0 50 50" xml:space="preserve">
<path d="M29.991,24.743H11.892c-0.552,0-1,0.447-1,1v11.476c0,0.553,0.448,1,1,1h18.099c0.552,0,1-0.447,1-1V25.743
	C30.991,25.19,30.543,24.743,29.991,24.743z M28.991,36.219H12.892v-9.476h16.099V36.219z"/>
<path d="M41.651,26.612l-8.058,1.999c-0.446,0.11-0.759,0.511-0.759,0.971v3.864c0,0.463,0.317,0.864,0.767,0.973l8.058,1.933
	c0.077,0.019,0.156,0.027,0.233,0.027c0.223,0,0.441-0.074,0.619-0.215c0.241-0.189,0.381-0.479,0.381-0.785v-7.796
	c0-0.308-0.142-0.598-0.384-0.788C42.265,26.605,41.949,26.538,41.651,26.612z M40.892,34.11l-6.058-1.452v-2.294l6.058-1.503V34.11
	z"/>
<path d="M15.213,22.652c2.109,0,3.826-1.664,3.826-3.71s-1.716-3.711-3.826-3.711c-2.11,0-3.826,1.665-3.826,3.711
	S13.104,22.652,15.213,22.652z M15.213,17.231c1.007,0,1.826,0.768,1.826,1.711s-0.819,1.71-1.826,1.71s-1.826-0.767-1.826-1.71
	S14.207,17.231,15.213,17.231z"/>
<path d="M25.709,12.219c-2.976,0-5.396,2.34-5.396,5.217s2.42,5.217,5.396,5.217s5.396-2.34,5.396-5.217
	S28.685,12.219,25.709,12.219z M25.709,20.652c-1.873,0-3.396-1.443-3.396-3.217s1.523-3.217,3.396-3.217s3.396,1.443,3.396,3.217
	S27.582,20.652,25.709,20.652z"/>
</svg>
